<svg xmlns="http://www.w3.org/2000/svg" viewBox="270 325 710 615" width="24" height="24" role="img" aria-label="carrito de compra">
  <path d="M 298.00 346.00 L 296.00 348.00 L 296.00 349.00 L 293.00 353.00 L 293.00 361.00 L 294.00 362.00 L 295.00 365.00 L 298.00 368.00 L 299.00 368.00 L 302.00 370.00 L 362.00 370.00 L 363.00 371.00 L 368.00 371.00 L 369.00 372.00 L 371.00 372.00 L 372.00 373.00 L 373.00 373.00 L 374.00 374.00 L 381.00 377.00 L 385.00 381.00 L 386.00 381.00 L 393.00 389.00 L 393.00 390.00 L 395.00 392.00 L 395.00 393.00 L 398.00 398.00 L 398.00 400.00 L 399.00 401.00 L 399.00 404.00 L 400.00 405.00 L 400.00 407.00 L 401.00 408.00 L 401.00 410.00 L 402.00 411.00 L 402.00 413.00 L 403.00 414.00 L 403.00 417.00 L 404.00 418.00 L 404.00 421.00 L 405.00 422.00 L 405.00 424.00 L 406.00 425.00 L 406.00 427.00 L 407.00 428.00 L 407.00 431.00 L 408.00 432.00 L 408.00 434.00 L 409.00 435.00 L 409.00 437.00 L 410.00 438.00 L 410.00 441.00 L 411.00 442.00 L 411.00 444.00 L 412.00 445.00 L 412.00 448.00 L 413.00 449.00 L 413.00 451.00 L 414.00 452.00 L 414.00 455.00 L 415.00 456.00 L 415.00 458.00 L 416.00 459.00 L 416.00 461.00 L 417.00 462.00 L 417.00 465.00 L 418.00 466.00 L 418.00 468.00 L 419.00 469.00 L 419.00 472.00 L 420.00 473.00 L 420.00 475.00 L 421.00 476.00 L 421.00 479.00 L 422.00 480.00 L 422.00 482.00 L 423.00 483.00 L 423.00 485.00 L 424.00 486.00 L 424.00 489.00 L 425.00 490.00 L 425.00 492.00 L 426.00 493.00 L 426.00 496.00 L 427.00 497.00 L 427.00 500.00 L 428.00 501.00 L 428.00 503.00 L 429.00 504.00 L 429.00 507.00 L 430.00 508.00 L 430.00 510.00 L 431.00 511.00 L 431.00 513.00 L 432.00 514.00 L 432.00 517.00 L 433.00 518.00 L 433.00 520.00 L 434.00 521.00 L 434.00 524.00 L 435.00 525.00 L 435.00 527.00 L 436.00 528.00 L 436.00 530.00 L 437.00 531.00 L 437.00 534.00 L 438.00 535.00 L 438.00 538.00 L 439.00 539.00 L 439.00 541.00 L 440.00 542.00 L 440.00 544.00 L 441.00 545.00 L 441.00 547.00 L 442.00 548.00 L 442.00 551.00 L 443.00 552.00 L 443.00 554.00 L 444.00 555.00 L 444.00 558.00 L 445.00 559.00 L 445.00 561.00 L 446.00 562.00 L 446.00 565.00 L 447.00 566.00 L 447.00 568.00 L 448.00 569.00 L 448.00 571.00 L 449.00 572.00 L 449.00 574.00 L 450.00 575.00 L 450.00 578.00 L 451.00 579.00 L 451.00 582.00 L 452.00 583.00 L 452.00 585.00 L 453.00 586.00 L 453.00 589.00 L 454.00 590.00 L 454.00 592.00 L 455.00 593.00 L 455.00 595.00 L 456.00 596.00 L 456.00 599.00 L 457.00 600.00 L 457.00 602.00 L 458.00 603.00 L 458.00 606.00 L 459.00 607.00 L 459.00 609.00 L 460.00 610.00 L 460.00 613.00 L 461.00 614.00 L 461.00 616.00 L 462.00 617.00 L 462.00 620.00 L 463.00 621.00 L 463.00 623.00 L 464.00 624.00 L 464.00 626.00 L 465.00 627.00 L 465.00 630.00 L 466.00 631.00 L 466.00 633.00 L 467.00 634.00 L 467.00 637.00 L 468.00 638.00 L 468.00 640.00 L 469.00 641.00 L 469.00 644.00 L 470.00 645.00 L 470.00 647.00 L 471.00 648.00 L 471.00 650.00 L 472.00 651.00 L 472.00 654.00 L 473.00 655.00 L 473.00 657.00 L 474.00 658.00 L 474.00 661.00 L 475.00 662.00 L 475.00 664.00 L 476.00 665.00 L 476.00 668.00 L 477.00 669.00 L 477.00 672.00 L 478.00 673.00 L 478.00 675.00 L 479.00 676.00 L 479.00 679.00 L 480.00 680.00 L 480.00 682.00 L 481.00 683.00 L 481.00 685.00 L 482.00 686.00 L 482.00 689.00 L 483.00 690.00 L 483.00 692.00 L 484.00 693.00 L 484.00 696.00 L 485.00 697.00 L 485.00 699.00 L 486.00 700.00 L 486.00 703.00 L 487.00 704.00 L 487.00 706.00 L 488.00 707.00 L 488.00 709.00 L 489.00 710.00 L 489.00 713.00 L 490.00 714.00 L 490.00 716.00 L 491.00 717.00 L 491.00 720.00 L 492.00 721.00 L 492.00 724.00 L 493.00 725.00 L 493.00 727.00 L 494.00 728.00 L 494.00 731.00 L 495.00 732.00 L 495.00 733.00 L 494.00 734.00 L 493.00 734.00 L 492.00 735.00 L 485.00 738.00 L 482.00 741.00 L 481.00 741.00 L 474.00 748.00 L 474.00 749.00 L 471.00 752.00 L 470.00 755.00 L 468.00 757.00 L 468.00 759.00 L 466.00 762.00 L 466.00 764.00 L 465.00 765.00 L 465.00 767.00 L 464.00 768.00 L 464.00 773.00 L 463.00 774.00 L 463.00 786.00 L 464.00 787.00 L 464.00 791.00 L 465.00 792.00 L 465.00 795.00 L 467.00 798.00 L 467.00 800.00 L 468.00 801.00 L 469.00 804.00 L 471.00 806.00 L 471.00 807.00 L 473.00 809.00 L 473.00 810.00 L 481.00 818.00 L 482.00 818.00 L 484.00 820.00 L 485.00 820.00 L 494.00 825.00 L 496.00 825.00 L 497.00 826.00 L 500.00 826.00 L 501.00 827.00 L 522.00 827.00 L 523.00 828.00 L 523.00 829.00 L 517.00 836.00 L 517.00 837.00 L 514.00 842.00 L 514.00 844.00 L 512.00 847.00 L 512.00 850.00 L 511.00 851.00 L 511.00 857.00 L 510.00 858.00 L 510.00 869.00 L 511.00 870.00 L 511.00 875.00 L 512.00 876.00 L 512.00 879.00 L 513.00 880.00 L 513.00 882.00 L 514.00 883.00 L 514.00 884.00 L 515.00 885.00 L 518.00 892.00 L 520.00 894.00 L 520.00 895.00 L 524.00 899.00 L 524.00 900.00 L 525.00 901.00 L 526.00 901.00 L 532.00 907.00 L 535.00 908.00 L 537.00 910.00 L 538.00 910.00 L 541.00 912.00 L 543.00 912.00 L 544.00 913.00 L 546.00 913.00 L 547.00 914.00 L 550.00 914.00 L 551.00 915.00 L 556.00 915.00 L 557.00 916.00 L 565.00 916.00 L 566.00 915.00 L 572.00 915.00 L 573.00 914.00 L 576.00 914.00 L 577.00 913.00 L 582.00 912.00 L 583.00 911.00 L 586.00 910.00 L 591.00 906.00 L 592.00 906.00 L 597.00 901.00 L 598.00 901.00 L 603.00 895.00 L 603.00 894.00 L 606.00 891.00 L 606.00 890.00 L 610.00 883.00 L 610.00 881.00 L 611.00 880.00 L 611.00 877.00 L 612.00 876.00 L 612.00 872.00 L 613.00 871.00 L 613.00 855.00 L 612.00 854.00 L 612.00 850.00 L 611.00 849.00 L 610.00 844.00 L 609.00 843.00 L 606.00 836.00 L 600.00 829.00 L 600.00 828.00 L 601.00 827.00 L 770.00 827.00 L 771.00 828.00 L 768.00 831.00 L 768.00 832.00 L 764.00 837.00 L 764.00 838.00 L 761.00 843.00 L 761.00 845.00 L 760.00 846.00 L 760.00 848.00 L 759.00 849.00 L 759.00 851.00 L 758.00 852.00 L 758.00 856.00 L 757.00 857.00 L 757.00 869.00 L 758.00 870.00 L 758.00 875.00 L 759.00 876.00 L 759.00 879.00 L 760.00 880.00 L 760.00 882.00 L 761.00 883.00 L 764.00 890.00 L 766.00 892.00 L 766.00 893.00 L 768.00 895.00 L 768.00 896.00 L 777.00 905.00 L 778.00 905.00 L 781.00 908.00 L 782.00 908.00 L 789.00 912.00 L 791.00 912.00 L 792.00 913.00 L 794.00 913.00 L 795.00 914.00 L 797.00 914.00 L 798.00 915.00 L 804.00 915.00 L 805.00 916.00 L 813.00 916.00 L 814.00 915.00 L 820.00 915.00 L 821.00 914.00 L 824.00 914.00 L 825.00 913.00 L 827.00 913.00 L 828.00 912.00 L 829.00 912.00 L 830.00 911.00 L 837.00 908.00 L 840.00 905.00 L 841.00 905.00 L 850.00 896.00 L 850.00 895.00 L 854.00 890.00 L 854.00 889.00 L 856.00 886.00 L 856.00 884.00 L 858.00 881.00 L 858.00 879.00 L 859.00 878.00 L 859.00 875.00 L 860.00 874.00 L 860.00 868.00 L 861.00 867.00 L 861.00 858.00 L 860.00 857.00 L 860.00 853.00 L 859.00 852.00 L 859.00 849.00 L 858.00 848.00 L 857.00 843.00 L 856.00 842.00 L 854.00 837.00 L 847.00 828.00 L 848.00 827.00 L 884.00 827.00 L 888.00 824.00 L 889.00 824.00 L 889.00 823.00 L 891.00 821.00 L 891.00 819.00 L 892.00 818.00 L 892.00 811.00 L 891.00 810.00 L 890.00 807.00 L 887.00 804.00 L 886.00 804.00 L 883.00 802.00 L 505.00 802.00 L 504.00 801.00 L 502.00 801.00 L 498.00 798.00 L 497.00 798.00 L 491.00 792.00 L 491.00 791.00 L 489.00 788.00 L 489.00 786.00 L 488.00 785.00 L 488.00 774.00 L 489.00 773.00 L 490.00 768.00 L 492.00 766.00 L 492.00 765.00 L 498.00 759.00 L 499.00 759.00 L 504.00 756.00 L 506.00 756.00 L 507.00 755.00 L 849.00 755.00 L 850.00 754.00 L 854.00 754.00 L 855.00 753.00 L 857.00 753.00 L 858.00 752.00 L 863.00 750.00 L 865.00 748.00 L 866.00 748.00 L 873.00 742.00 L 873.00 741.00 L 878.00 735.00 L 878.00 734.00 L 882.00 727.00 L 882.00 725.00 L 883.00 724.00 L 883.00 721.00 L 884.00 720.00 L 884.00 717.00 L 885.00 716.00 L 885.00 714.00 L 886.00 713.00 L 886.00 711.00 L 887.00 710.00 L 887.00 708.00 L 888.00 707.00 L 888.00 704.00 L 889.00 703.00 L 889.00 701.00 L 890.00 700.00 L 890.00 698.00 L 891.00 697.00 L 891.00 694.00 L 892.00 693.00 L 892.00 691.00 L 893.00 690.00 L 893.00 688.00 L 894.00 687.00 L 894.00 685.00 L 895.00 684.00 L 895.00 681.00 L 896.00 680.00 L 896.00 678.00 L 897.00 677.00 L 897.00 675.00 L 898.00 674.00 L 898.00 672.00 L 899.00 671.00 L 899.00 668.00 L 900.00 667.00 L 900.00 665.00 L 901.00 664.00 L 901.00 662.00 L 902.00 661.00 L 902.00 658.00 L 903.00 657.00 L 903.00 655.00 L 904.00 654.00 L 904.00 652.00 L 905.00 651.00 L 905.00 648.00 L 906.00 647.00 L 906.00 645.00 L 907.00 644.00 L 907.00 642.00 L 908.00 641.00 L 908.00 638.00 L 909.00 637.00 L 909.00 635.00 L 910.00 634.00 L 910.00 632.00 L 911.00 631.00 L 911.00 629.00 L 912.00 628.00 L 912.00 625.00 L 913.00 624.00 L 913.00 622.00 L 914.00 621.00 L 914.00 619.00 L 915.00 618.00 L 915.00 616.00 L 916.00 615.00 L 916.00 612.00 L 917.00 611.00 L 917.00 609.00 L 918.00 608.00 L 918.00 606.00 L 919.00 605.00 L 919.00 602.00 L 920.00 601.00 L 920.00 599.00 L 921.00 598.00 L 921.00 596.00 L 922.00 595.00 L 922.00 593.00 L 923.00 592.00 L 923.00 589.00 L 924.00 588.00 L 924.00 586.00 L 925.00 585.00 L 925.00 583.00 L 926.00 582.00 L 926.00 579.00 L 927.00 578.00 L 927.00 576.00 L 928.00 575.00 L 928.00 573.00 L 929.00 572.00 L 929.00 570.00 L 930.00 569.00 L 930.00 566.00 L 931.00 565.00 L 931.00 563.00 L 932.00 562.00 L 932.00 559.00 L 933.00 558.00 L 933.00 556.00 L 934.00 555.00 L 934.00 553.00 L 935.00 552.00 L 935.00 550.00 L 936.00 549.00 L 936.00 546.00 L 937.00 545.00 L 937.00 543.00 L 938.00 542.00 L 938.00 540.00 L 939.00 539.00 L 939.00 537.00 L 940.00 536.00 L 940.00 533.00 L 941.00 532.00 L 941.00 530.00 L 942.00 529.00 L 942.00 527.00 L 943.00 526.00 L 943.00 523.00 L 944.00 522.00 L 944.00 520.00 L 945.00 519.00 L 945.00 517.00 L 946.00 516.00 L 946.00 514.00 L 947.00 513.00 L 947.00 511.00 L 948.00 510.00 L 948.00 507.00 L 949.00 506.00 L 949.00 504.00 L 950.00 503.00 L 950.00 500.00 L 951.00 499.00 L 951.00 497.00 L 952.00 496.00 L 952.00 494.00 L 953.00 493.00 L 953.00 491.00 L 954.00 490.00 L 954.00 487.00 L 955.00 486.00 L 955.00 484.00 L 956.00 483.00 L 956.00 481.00 L 957.00 480.00 L 957.00 477.00 L 958.00 476.00 L 958.00 474.00 L 959.00 473.00 L 959.00 471.00 L 960.00 470.00 L 960.00 457.00 L 959.00 456.00 L 959.00 453.00 L 958.00 452.00 L 958.00 450.00 L 956.00 448.00 L 955.00 445.00 L 946.00 436.00 L 945.00 436.00 L 940.00 433.00 L 937.00 433.00 L 936.00 432.00 L 913.00 432.00 L 912.00 431.00 L 883.00 431.00 L 882.00 432.00 L 859.00 432.00 L 858.00 431.00 L 824.00 431.00 L 823.00 432.00 L 798.00 432.00 L 797.00 431.00 L 767.00 431.00 L 766.00 432.00 L 765.00 431.00 L 764.00 432.00 L 740.00 432.00 L 739.00 431.00 L 734.00 431.00 L 733.00 432.00 L 726.00 432.00 L 725.00 431.00 L 706.00 431.00 L 705.00 432.00 L 683.00 432.00 L 682.00 431.00 L 639.00 431.00 L 638.00 432.00 L 627.00 432.00 L 626.00 431.00 L 605.00 431.00 L 604.00 432.00 L 601.00 432.00 L 600.00 431.00 L 598.00 431.00 L 597.00 432.00 L 577.00 432.00 L 576.00 431.00 L 522.00 431.00 L 521.00 432.00 L 513.00 432.00 L 512.00 431.00 L 474.00 431.00 L 473.00 432.00 L 456.00 432.00 L 455.00 431.00 L 451.00 431.00 L 450.00 432.00 L 445.00 432.00 L 444.00 433.00 L 439.00 434.00 L 437.00 436.00 L 436.00 436.00 L 434.00 433.00 L 434.00 430.00 L 433.00 429.00 L 433.00 426.00 L 432.00 425.00 L 432.00 423.00 L 431.00 422.00 L 431.00 419.00 L 430.00 418.00 L 430.00 416.00 L 429.00 415.00 L 429.00 412.00 L 428.00 411.00 L 428.00 409.00 L 427.00 408.00 L 427.00 405.00 L 426.00 404.00 L 426.00 401.00 L 425.00 400.00 L 425.00 398.00 L 424.00 397.00 L 424.00 395.00 L 423.00 394.00 L 423.00 391.00 L 422.00 390.00 L 422.00 388.00 L 421.00 387.00 L 421.00 386.00 L 420.00 385.00 L 417.00 378.00 L 415.00 376.00 L 415.00 375.00 L 413.00 373.00 L 413.00 372.00 L 409.00 368.00 L 409.00 367.00 L 403.00 361.00 L 402.00 361.00 L 398.00 357.00 L 397.00 357.00 L 392.00 353.00 L 391.00 353.00 L 382.00 348.00 L 380.00 348.00 L 379.00 347.00 L 377.00 347.00 L 376.00 346.00 L 373.00 346.00 L 372.00 345.00 L 368.00 345.00 L 367.00 344.00 L 303.00 344.00 L 302.00 345.00 L 300.00 345.00 L 299.00 346.00 Z M 805.00 835.00 L 813.00 835.00 L 814.00 836.00 L 817.00 836.00 L 818.00 837.00 L 820.00 837.00 L 824.00 840.00 L 825.00 840.00 L 832.00 847.00 L 832.00 848.00 L 835.00 852.00 L 835.00 854.00 L 836.00 855.00 L 836.00 857.00 L 837.00 858.00 L 837.00 869.00 L 836.00 870.00 L 836.00 873.00 L 835.00 874.00 L 834.00 877.00 L 832.00 879.00 L 832.00 880.00 L 826.00 886.00 L 823.00 887.00 L 821.00 889.00 L 819.00 889.00 L 818.00 890.00 L 816.00 890.00 L 815.00 891.00 L 803.00 891.00 L 802.00 890.00 L 797.00 889.00 L 795.00 887.00 L 794.00 887.00 L 792.00 885.00 L 791.00 885.00 L 787.00 881.00 L 787.00 880.00 L 785.00 878.00 L 785.00 877.00 L 783.00 874.00 L 782.00 869.00 L 781.00 868.00 L 781.00 860.00 L 782.00 859.00 L 782.00 856.00 L 783.00 855.00 L 783.00 853.00 L 784.00 852.00 L 785.00 849.00 L 787.00 847.00 L 787.00 846.00 L 793.00 840.00 L 796.00 839.00 L 798.00 837.00 L 800.00 837.00 L 801.00 836.00 L 804.00 836.00 Z M 558.00 835.00 L 565.00 835.00 L 566.00 836.00 L 569.00 836.00 L 570.00 837.00 L 572.00 837.00 L 573.00 838.00 L 576.00 839.00 L 585.00 848.00 L 585.00 849.00 L 587.00 851.00 L 587.00 853.00 L 588.00 854.00 L 588.00 856.00 L 589.00 857.00 L 589.00 869.00 L 588.00 870.00 L 588.00 873.00 L 587.00 874.00 L 586.00 877.00 L 584.00 879.00 L 584.00 880.00 L 577.00 887.00 L 576.00 887.00 L 571.00 890.00 L 568.00 890.00 L 567.00 891.00 L 556.00 891.00 L 555.00 890.00 L 552.00 890.00 L 551.00 889.00 L 548.00 888.00 L 546.00 886.00 L 545.00 886.00 L 539.00 880.00 L 539.00 879.00 L 537.00 877.00 L 537.00 876.00 L 535.00 873.00 L 535.00 870.00 L 534.00 869.00 L 534.00 858.00 L 535.00 857.00 L 535.00 854.00 L 536.00 853.00 L 538.00 848.00 L 546.00 840.00 L 547.00 840.00 L 549.00 838.00 L 550.00 838.00 L 551.00 837.00 L 553.00 837.00 L 554.00 836.00 L 557.00 836.00 Z M 519.00 728.00 L 519.00 726.00 L 518.00 725.00 L 518.00 722.00 L 517.00 721.00 L 517.00 719.00 L 516.00 718.00 L 516.00 715.00 L 515.00 714.00 L 515.00 711.00 L 514.00 710.00 L 514.00 708.00 L 513.00 707.00 L 513.00 704.00 L 512.00 703.00 L 512.00 700.00 L 511.00 699.00 L 511.00 697.00 L 510.00 696.00 L 510.00 693.00 L 509.00 692.00 L 509.00 690.00 L 508.00 689.00 L 508.00 686.00 L 507.00 685.00 L 507.00 683.00 L 506.00 682.00 L 506.00 679.00 L 505.00 678.00 L 505.00 676.00 L 504.00 675.00 L 504.00 673.00 L 503.00 672.00 L 503.00 669.00 L 502.00 668.00 L 502.00 666.00 L 501.00 665.00 L 501.00 662.00 L 500.00 661.00 L 500.00 659.00 L 499.00 658.00 L 499.00 655.00 L 498.00 654.00 L 498.00 652.00 L 497.00 651.00 L 497.00 648.00 L 496.00 647.00 L 496.00 644.00 L 495.00 643.00 L 495.00 640.00 L 494.00 639.00 L 494.00 637.00 L 493.00 636.00 L 493.00 634.00 L 492.00 633.00 L 492.00 630.00 L 491.00 629.00 L 491.00 627.00 L 490.00 626.00 L 490.00 623.00 L 489.00 622.00 L 489.00 620.00 L 488.00 619.00 L 488.00 616.00 L 487.00 615.00 L 487.00 612.00 L 486.00 611.00 L 486.00 609.00 L 485.00 608.00 L 485.00 606.00 L 484.00 605.00 L 484.00 602.00 L 483.00 601.00 L 483.00 599.00 L 482.00 598.00 L 482.00 595.00 L 481.00 594.00 L 481.00 592.00 L 480.00 591.00 L 480.00 588.00 L 479.00 587.00 L 479.00 585.00 L 478.00 584.00 L 478.00 581.00 L 477.00 580.00 L 477.00 578.00 L 476.00 577.00 L 476.00 574.00 L 475.00 573.00 L 475.00 571.00 L 474.00 570.00 L 474.00 568.00 L 473.00 567.00 L 473.00 564.00 L 472.00 563.00 L 472.00 561.00 L 471.00 560.00 L 471.00 557.00 L 470.00 556.00 L 470.00 554.00 L 469.00 553.00 L 469.00 550.00 L 468.00 549.00 L 468.00 547.00 L 467.00 546.00 L 467.00 544.00 L 466.00 543.00 L 466.00 540.00 L 465.00 539.00 L 465.00 536.00 L 464.00 535.00 L 464.00 533.00 L 463.00 532.00 L 463.00 529.00 L 462.00 528.00 L 462.00 526.00 L 461.00 525.00 L 461.00 522.00 L 460.00 521.00 L 460.00 519.00 L 459.00 518.00 L 459.00 515.00 L 458.00 514.00 L 458.00 512.00 L 457.00 511.00 L 457.00 508.00 L 456.00 507.00 L 456.00 505.00 L 455.00 504.00 L 455.00 501.00 L 454.00 500.00 L 454.00 498.00 L 453.00 497.00 L 453.00 494.00 L 452.00 493.00 L 452.00 490.00 L 451.00 489.00 L 451.00 487.00 L 450.00 486.00 L 450.00 484.00 L 449.00 483.00 L 449.00 480.00 L 448.00 479.00 L 448.00 477.00 L 447.00 476.00 L 447.00 473.00 L 446.00 472.00 L 446.00 470.00 L 445.00 469.00 L 445.00 466.00 L 444.00 465.00 L 444.00 462.00 L 445.00 461.00 L 445.00 460.00 L 448.00 457.00 L 449.00 457.00 L 450.00 456.00 L 930.00 456.00 L 935.00 459.00 L 935.00 460.00 L 936.00 461.00 L 936.00 466.00 L 935.00 467.00 L 935.00 469.00 L 934.00 470.00 L 934.00 472.00 L 933.00 473.00 L 933.00 476.00 L 932.00 477.00 L 932.00 479.00 L 931.00 480.00 L 931.00 482.00 L 930.00 483.00 L 930.00 486.00 L 929.00 487.00 L 929.00 489.00 L 928.00 490.00 L 928.00 492.00 L 927.00 493.00 L 927.00 495.00 L 926.00 496.00 L 926.00 498.00 L 925.00 499.00 L 925.00 502.00 L 924.00 503.00 L 924.00 505.00 L 923.00 506.00 L 923.00 508.00 L 922.00 509.00 L 922.00 511.00 L 921.00 512.00 L 921.00 514.00 L 920.00 515.00 L 920.00 518.00 L 919.00 519.00 L 919.00 521.00 L 918.00 522.00 L 918.00 524.00 L 917.00 525.00 L 917.00 527.00 L 916.00 528.00 L 916.00 530.00 L 915.00 531.00 L 915.00 534.00 L 914.00 535.00 L 914.00 537.00 L 913.00 538.00 L 913.00 540.00 L 912.00 541.00 L 912.00 544.00 L 911.00 545.00 L 911.00 547.00 L 910.00 548.00 L 910.00 550.00 L 909.00 551.00 L 909.00 553.00 L 908.00 554.00 L 908.00 556.00 L 907.00 557.00 L 907.00 560.00 L 906.00 561.00 L 906.00 563.00 L 905.00 564.00 L 905.00 567.00 L 904.00 568.00 L 904.00 570.00 L 903.00 571.00 L 903.00 573.00 L 902.00 574.00 L 902.00 576.00 L 901.00 577.00 L 901.00 580.00 L 900.00 581.00 L 900.00 583.00 L 899.00 584.00 L 899.00 586.00 L 898.00 587.00 L 898.00 589.00 L 897.00 590.00 L 897.00 592.00 L 896.00 593.00 L 896.00 596.00 L 895.00 597.00 L 895.00 599.00 L 894.00 600.00 L 894.00 602.00 L 893.00 603.00 L 893.00 606.00 L 892.00 607.00 L 892.00 609.00 L 891.00 610.00 L 891.00 612.00 L 890.00 613.00 L 890.00 616.00 L 889.00 617.00 L 889.00 619.00 L 888.00 620.00 L 888.00 622.00 L 887.00 623.00 L 887.00 626.00 L 886.00 627.00 L 886.00 629.00 L 885.00 630.00 L 885.00 633.00 L 884.00 634.00 L 884.00 636.00 L 883.00 637.00 L 883.00 639.00 L 882.00 640.00 L 882.00 643.00 L 881.00 644.00 L 881.00 646.00 L 880.00 647.00 L 880.00 649.00 L 879.00 650.00 L 879.00 653.00 L 878.00 654.00 L 878.00 656.00 L 877.00 657.00 L 877.00 659.00 L 876.00 660.00 L 876.00 663.00 L 875.00 664.00 L 875.00 666.00 L 874.00 667.00 L 874.00 669.00 L 873.00 670.00 L 873.00 673.00 L 872.00 674.00 L 872.00 676.00 L 871.00 677.00 L 871.00 679.00 L 870.00 680.00 L 870.00 683.00 L 869.00 684.00 L 869.00 686.00 L 868.00 687.00 L 868.00 689.00 L 867.00 690.00 L 867.00 692.00 L 866.00 693.00 L 866.00 696.00 L 865.00 697.00 L 865.00 699.00 L 864.00 700.00 L 864.00 703.00 L 863.00 704.00 L 863.00 706.00 L 862.00 707.00 L 862.00 709.00 L 861.00 710.00 L 861.00 712.00 L 860.00 713.00 L 860.00 716.00 L 859.00 717.00 L 859.00 719.00 L 858.00 720.00 L 857.00 723.00 L 852.00 728.00 L 851.00 728.00 L 850.00 729.00 L 848.00 729.00 L 847.00 730.00 L 521.00 730.00 Z M 789.00 511.00 L 785.00 507.00 L 784.00 507.00 L 783.00 506.00 L 775.00 506.00 L 774.00 505.00 L 738.00 505.00 L 737.00 506.00 L 726.00 506.00 L 725.00 507.00 L 719.00 507.00 L 718.00 508.00 L 713.00 508.00 L 712.00 509.00 L 708.00 509.00 L 707.00 510.00 L 704.00 510.00 L 703.00 511.00 L 700.00 511.00 L 699.00 512.00 L 697.00 512.00 L 696.00 513.00 L 693.00 513.00 L 692.00 514.00 L 687.00 515.00 L 684.00 517.00 L 682.00 517.00 L 679.00 519.00 L 677.00 519.00 L 673.00 522.00 L 672.00 522.00 L 671.00 523.00 L 664.00 526.00 L 662.00 528.00 L 661.00 528.00 L 659.00 530.00 L 658.00 530.00 L 656.00 532.00 L 655.00 532.00 L 652.00 535.00 L 651.00 535.00 L 635.00 551.00 L 635.00 552.00 L 632.00 555.00 L 632.00 556.00 L 626.00 564.00 L 625.00 567.00 L 623.00 569.00 L 623.00 571.00 L 619.00 578.00 L 619.00 580.00 L 618.00 581.00 L 618.00 583.00 L 617.00 584.00 L 617.00 586.00 L 616.00 587.00 L 616.00 589.00 L 615.00 590.00 L 615.00 593.00 L 614.00 594.00 L 614.00 598.00 L 613.00 599.00 L 613.00 604.00 L 612.00 605.00 L 612.00 627.00 L 613.00 628.00 L 613.00 634.00 L 614.00 635.00 L 614.00 639.00 L 615.00 640.00 L 615.00 643.00 L 616.00 644.00 L 616.00 646.00 L 617.00 647.00 L 617.00 650.00 L 618.00 651.00 L 618.00 653.00 L 594.00 683.00 L 594.00 685.00 L 593.00 686.00 L 593.00 692.00 L 594.00 693.00 L 594.00 694.00 L 598.00 698.00 L 599.00 698.00 L 600.00 699.00 L 608.00 699.00 L 612.00 696.00 L 612.00 695.00 L 616.00 691.00 L 616.00 690.00 L 619.00 687.00 L 619.00 686.00 L 623.00 682.00 L 623.00 681.00 L 627.00 677.00 L 627.00 676.00 L 631.00 672.00 L 631.00 671.00 L 633.00 669.00 L 635.00 669.00 L 638.00 671.00 L 643.00 672.00 L 646.00 674.00 L 649.00 674.00 L 650.00 675.00 L 652.00 675.00 L 653.00 676.00 L 657.00 676.00 L 658.00 677.00 L 663.00 677.00 L 664.00 678.00 L 691.00 678.00 L 692.00 677.00 L 697.00 677.00 L 698.00 676.00 L 702.00 676.00 L 703.00 675.00 L 706.00 675.00 L 707.00 674.00 L 709.00 674.00 L 710.00 673.00 L 715.00 672.00 L 716.00 671.00 L 717.00 671.00 L 718.00 670.00 L 719.00 670.00 L 720.00 669.00 L 721.00 669.00 L 722.00 668.00 L 729.00 665.00 L 731.00 663.00 L 732.00 663.00 L 734.00 661.00 L 735.00 661.00 L 738.00 658.00 L 739.00 658.00 L 743.00 654.00 L 744.00 654.00 L 752.00 646.00 L 752.00 645.00 L 757.00 640.00 L 757.00 639.00 L 760.00 636.00 L 760.00 635.00 L 766.00 627.00 L 766.00 626.00 L 767.00 625.00 L 768.00 622.00 L 770.00 620.00 L 770.00 619.00 L 771.00 618.00 L 771.00 616.00 L 776.00 607.00 L 776.00 605.00 L 778.00 602.00 L 778.00 600.00 L 779.00 599.00 L 779.00 597.00 L 780.00 596.00 L 780.00 594.00 L 781.00 593.00 L 781.00 590.00 L 782.00 589.00 L 782.00 587.00 L 783.00 586.00 L 783.00 583.00 L 784.00 582.00 L 784.00 579.00 L 785.00 578.00 L 785.00 574.00 L 786.00 573.00 L 786.00 569.00 L 787.00 568.00 L 787.00 562.00 L 788.00 561.00 L 788.00 553.00 L 789.00 552.00 L 789.00 542.00 L 790.00 541.00 L 790.00 514.00 L 789.00 513.00 Z M 767.00 527.00 L 768.00 528.00 L 768.00 542.00 L 767.00 543.00 L 767.00 553.00 L 766.00 554.00 L 766.00 561.00 L 765.00 562.00 L 765.00 567.00 L 764.00 568.00 L 764.00 571.00 L 763.00 572.00 L 763.00 576.00 L 762.00 577.00 L 762.00 579.00 L 761.00 580.00 L 761.00 583.00 L 760.00 584.00 L 760.00 586.00 L 759.00 587.00 L 759.00 589.00 L 758.00 590.00 L 757.00 595.00 L 755.00 598.00 L 755.00 600.00 L 754.00 601.00 L 754.00 602.00 L 753.00 603.00 L 753.00 604.00 L 752.00 605.00 L 749.00 612.00 L 747.00 614.00 L 746.00 617.00 L 744.00 619.00 L 744.00 620.00 L 742.00 622.00 L 742.00 623.00 L 739.00 626.00 L 739.00 627.00 L 727.00 639.00 L 726.00 639.00 L 720.00 644.00 L 717.00 645.00 L 715.00 647.00 L 714.00 647.00 L 709.00 650.00 L 707.00 650.00 L 704.00 652.00 L 701.00 652.00 L 700.00 653.00 L 698.00 653.00 L 697.00 654.00 L 693.00 654.00 L 692.00 655.00 L 685.00 655.00 L 684.00 656.00 L 671.00 656.00 L 670.00 655.00 L 664.00 655.00 L 663.00 654.00 L 659.00 654.00 L 658.00 653.00 L 656.00 653.00 L 655.00 652.00 L 652.00 652.00 L 651.00 651.00 L 650.00 651.00 L 649.00 650.00 L 649.00 649.00 L 653.00 645.00 L 653.00 644.00 L 657.00 640.00 L 657.00 639.00 L 662.00 634.00 L 662.00 633.00 L 672.00 623.00 L 672.00 622.00 L 686.00 608.00 L 687.00 608.00 L 693.00 602.00 L 694.00 602.00 L 698.00 598.00 L 699.00 598.00 L 702.00 595.00 L 703.00 595.00 L 706.00 592.00 L 707.00 592.00 L 709.00 590.00 L 709.00 589.00 L 711.00 586.00 L 711.00 580.00 L 710.00 579.00 L 710.00 578.00 L 706.00 574.00 L 705.00 574.00 L 704.00 573.00 L 696.00 573.00 L 694.00 575.00 L 693.00 575.00 L 691.00 577.00 L 690.00 577.00 L 687.00 580.00 L 686.00 580.00 L 683.00 583.00 L 682.00 583.00 L 678.00 587.00 L 677.00 587.00 L 651.00 613.00 L 651.00 614.00 L 644.00 621.00 L 644.00 622.00 L 639.00 627.00 L 639.00 628.00 L 636.00 631.00 L 634.00 628.00 L 634.00 618.00 L 633.00 617.00 L 633.00 616.00 L 634.00 615.00 L 634.00 604.00 L 635.00 603.00 L 635.00 599.00 L 636.00 598.00 L 636.00 595.00 L 637.00 594.00 L 638.00 589.00 L 640.00 586.00 L 640.00 584.00 L 641.00 583.00 L 644.00 576.00 L 646.00 574.00 L 646.00 573.00 L 648.00 571.00 L 648.00 570.00 L 652.00 566.00 L 652.00 565.00 L 663.00 554.00 L 664.00 554.00 L 668.00 550.00 L 669.00 550.00 L 674.00 546.00 L 675.00 546.00 L 676.00 545.00 L 683.00 542.00 L 687.00 539.00 L 689.00 539.00 L 692.00 537.00 L 694.00 537.00 L 695.00 536.00 L 697.00 536.00 L 698.00 535.00 L 700.00 535.00 L 701.00 534.00 L 703.00 534.00 L 704.00 533.00 L 707.00 533.00 L 708.00 532.00 L 711.00 532.00 L 712.00 531.00 L 716.00 531.00 L 717.00 530.00 L 722.00 530.00 L 723.00 529.00 L 730.00 529.00 L 731.00 528.00 L 742.00 528.00 L 743.00 527.00 Z" fill-rule="evenodd"/>
</svg>
