<svg xmlns="http://www.w3.org/2000/svg" viewBox="0 0 560 724" width="24" height="24" role="img" aria-label="inicio">
  <path d="M 358.00 176.00 L 322.00 183.00 L 295.00 192.00 L 267.00 205.00 L 243.00 220.00 L 228.00 232.00 L 203.00 259.00 L 189.00 282.00 L 180.00 307.00 L 177.00 323.00 L 176.00 345.00 L 182.00 379.00 L 193.00 404.00 L 201.00 416.00 L 225.00 441.00 L 227.00 469.00 L 233.00 490.00 L 243.00 510.00 L 242.00 522.00 L 234.00 537.00 L 222.00 548.00 L 200.00 557.00 L 164.00 563.00 L 146.00 569.00 L 127.00 580.00 L 122.00 586.00 L 122.00 591.00 L 125.00 596.00 L 133.00 598.00 L 155.00 585.00 L 172.00 580.00 L 187.00 578.00 L 188.00 582.00 L 183.00 591.00 L 178.00 608.00 L 176.00 632.00 L 183.00 637.00 L 189.00 636.00 L 193.00 632.00 L 197.00 607.00 L 208.00 583.00 L 218.00 572.00 L 230.00 567.00 L 240.00 560.00 L 253.00 546.00 L 257.00 537.00 L 261.00 536.00 L 266.00 543.00 L 274.00 561.00 L 277.00 575.00 L 276.00 591.00 L 270.00 604.00 L 245.00 628.00 L 232.00 649.00 L 225.00 675.00 L 225.00 687.00 L 232.00 693.00 L 238.00 692.00 L 242.00 688.00 L 244.00 671.00 L 251.00 652.00 L 257.00 643.00 L 272.00 629.00 L 276.00 631.00 L 280.00 644.00 L 285.00 653.00 L 302.00 671.00 L 308.00 675.00 L 315.00 675.00 L 321.00 669.00 L 319.00 660.00 L 309.00 652.00 L 300.00 641.00 L 293.00 623.00 L 293.00 603.00 L 297.00 584.00 L 295.00 565.00 L 296.00 559.00 L 323.00 570.00 L 335.00 573.00 L 341.00 579.00 L 354.00 602.00 L 358.00 617.00 L 359.00 631.00 L 366.00 637.00 L 374.00 635.00 L 377.00 630.00 L 374.00 606.00 L 365.00 582.00 L 366.00 578.00 L 381.00 580.00 L 398.00 585.00 L 420.00 598.00 L 428.00 596.00 L 431.00 591.00 L 431.00 587.00 L 427.00 581.00 L 407.00 569.00 L 384.00 562.00 L 367.00 560.00 L 334.00 552.00 L 318.00 546.00 L 294.00 532.00 L 279.00 519.00 L 265.00 501.00 L 256.00 483.00 L 250.00 461.00 L 249.00 448.00 L 251.00 446.00 L 268.00 443.00 L 285.00 437.00 L 310.00 423.00 L 330.00 407.00 L 348.00 387.00 L 363.00 363.00 L 370.00 347.00 L 378.00 320.00 L 382.00 295.00 L 382.00 252.00 L 376.00 212.00 L 370.00 187.00 L 364.00 178.00 Z
M 35.00 200.00 L 30.00 212.00 L 30.00 220.00 L 33.00 228.00 L 42.00 237.00 L 59.00 241.00 L 59.00 448.00 L 66.00 472.00 L 81.00 490.00 L 97.00 499.00 L 104.00 501.00 L 192.00 502.00 L 196.00 500.00 L 200.00 494.00 L 200.00 486.00 L 198.00 482.00 L 192.00 478.00 L 108.00 477.00 L 98.00 472.00 L 86.00 458.00 L 83.00 445.00 L 83.00 226.00 L 77.00 218.00 L 73.00 216.00 L 59.00 216.00 L 58.00 213.00 L 267.00 59.00 L 274.00 56.00 L 285.00 56.00 L 290.00 58.00 L 501.00 213.00 L 500.00 216.00 L 486.00 216.00 L 478.00 222.00 L 475.00 230.00 L 476.00 445.00 L 474.00 455.00 L 470.00 463.00 L 461.00 472.00 L 445.00 478.00 L 322.00 478.00 L 318.00 480.00 L 314.00 486.00 L 314.00 495.00 L 322.00 502.00 L 450.00 502.00 L 462.00 499.00 L 475.00 492.00 L 486.00 482.00 L 493.00 472.00 L 500.00 448.00 L 500.00 241.00 L 515.00 238.00 L 524.00 231.00 L 529.00 220.00 L 527.00 205.00 L 518.00 194.00 L 303.00 36.00 L 290.00 31.00 L 275.00 30.00 L 265.00 32.00 L 254.00 37.00 L 77.00 167.00 Z
M 348.00 203.00 L 350.00 205.00 L 356.00 235.00 L 359.00 280.00 L 356.00 308.00 L 345.00 344.00 L 328.00 373.00 L 303.00 398.00 L 274.00 415.00 L 249.00 422.00 L 248.00 402.00 L 251.00 379.00 L 261.00 344.00 L 273.00 319.00 L 294.00 292.00 L 296.00 284.00 L 290.00 276.00 L 280.00 276.00 L 272.00 283.00 L 256.00 304.00 L 241.00 332.00 L 232.00 357.00 L 224.00 403.00 L 220.00 401.00 L 206.00 376.00 L 201.00 357.00 L 200.00 330.00 L 204.00 310.00 L 210.00 294.00 L 222.00 274.00 L 233.00 261.00 L 247.00 248.00 L 268.00 233.00 L 306.00 214.00 L 330.00 206.00 Z" fill-rule="evenodd"/>
</svg>
