<svg xmlns="http://www.w3.org/2000/svg" viewBox="0 0 671 653" width="24" height="24" role="img" aria-label="mi-jardin">
  <path d="M 144.00 119.00 L 139.00 126.00 L 140.00 175.00 L 147.00 206.00 L 160.00 235.00 L 175.00 256.00 L 191.00 272.00 L 209.00 285.00 L 227.00 294.00 L 249.00 301.00 L 269.00 304.00 L 296.00 303.00 L 298.00 305.00 L 308.00 328.00 L 316.00 358.00 L 320.00 394.00 L 320.00 419.00 L 302.00 425.00 L 294.00 430.00 L 274.00 423.00 L 255.00 423.00 L 234.00 431.00 L 222.00 441.00 L 200.00 440.00 L 186.00 444.00 L 176.00 450.00 L 158.00 450.00 L 157.00 413.00 L 176.00 409.00 L 192.00 402.00 L 199.00 397.00 L 213.00 381.00 L 220.00 366.00 L 223.00 352.00 L 223.00 329.00 L 221.00 324.00 L 215.00 320.00 L 201.00 320.00 L 191.00 322.00 L 174.00 329.00 L 156.00 345.00 L 144.00 368.00 L 141.00 368.00 L 136.00 360.00 L 127.00 351.00 L 112.00 341.00 L 89.00 335.00 L 76.00 335.00 L 61.00 338.00 L 56.00 344.00 L 57.00 361.00 L 62.00 376.00 L 73.00 394.00 L 86.00 406.00 L 101.00 414.00 L 117.00 418.00 L 138.00 419.00 L 138.00 458.00 L 127.00 469.00 L 121.00 479.00 L 110.00 480.00 L 98.00 479.00 L 94.00 462.00 L 86.00 453.00 L 78.00 449.00 L 50.00 449.00 L 42.00 453.00 L 35.00 460.00 L 31.00 469.00 L 30.00 482.00 L 31.00 600.00 L 37.00 612.00 L 44.00 618.00 L 56.00 622.00 L 615.00 622.00 L 620.00 621.00 L 632.00 614.00 L 640.00 599.00 L 640.00 470.00 L 637.00 462.00 L 629.00 453.00 L 616.00 448.00 L 598.00 448.00 L 588.00 451.00 L 579.00 459.00 L 575.00 466.00 L 572.00 479.00 L 556.00 479.00 L 556.00 477.00 L 581.00 450.00 L 606.00 414.00 L 618.00 386.00 L 619.00 372.00 L 613.00 365.00 L 607.00 364.00 L 596.00 366.00 L 577.00 374.00 L 556.00 389.00 L 555.00 381.00 L 558.00 361.00 L 557.00 339.00 L 552.00 319.00 L 544.00 308.00 L 535.00 307.00 L 527.00 311.00 L 510.00 331.00 L 498.00 356.00 L 489.00 394.00 L 487.00 394.00 L 469.00 375.00 L 456.00 367.00 L 450.00 365.00 L 440.00 365.00 L 435.00 369.00 L 432.00 378.00 L 433.00 391.00 L 440.00 418.00 L 450.00 439.00 L 449.00 443.00 L 434.00 443.00 L 421.00 432.00 L 406.00 426.00 L 385.00 425.00 L 365.00 431.00 L 356.00 425.00 L 340.00 419.00 L 340.00 396.00 L 344.00 372.00 L 351.00 348.00 L 361.00 327.00 L 405.00 328.00 L 428.00 324.00 L 449.00 317.00 L 472.00 305.00 L 487.00 294.00 L 501.00 281.00 L 515.00 264.00 L 528.00 243.00 L 541.00 209.00 L 548.00 169.00 L 547.00 140.00 L 541.00 135.00 L 528.00 133.00 L 495.00 132.00 L 467.00 135.00 L 431.00 146.00 L 412.00 156.00 L 394.00 169.00 L 372.00 192.00 L 361.00 209.00 L 350.00 233.00 L 342.00 271.00 L 342.00 290.00 L 345.00 315.00 L 335.00 337.00 L 331.00 338.00 L 323.00 312.00 L 314.00 293.00 L 318.00 269.00 L 318.00 241.00 L 314.00 221.00 L 303.00 193.00 L 287.00 169.00 L 261.00 145.00 L 245.00 135.00 L 227.00 127.00 L 198.00 119.00 L 181.00 117.00 L 149.00 117.00 Z
M 97.00 560.00 L 572.00 559.00 L 573.00 601.00 L 99.00 602.00 L 97.00 600.00 Z
M 97.00 501.00 L 99.00 499.00 L 572.00 499.00 L 573.00 538.00 L 99.00 539.00 L 97.00 537.00 Z
M 527.00 153.00 L 529.00 155.00 L 528.00 174.00 L 521.00 208.00 L 508.00 238.00 L 493.00 260.00 L 470.00 282.00 L 443.00 298.00 L 413.00 307.00 L 395.00 309.00 L 377.00 308.00 L 377.00 303.00 L 392.00 285.00 L 413.00 264.00 L 439.00 245.00 L 443.00 240.00 L 443.00 232.00 L 440.00 228.00 L 435.00 226.00 L 429.00 227.00 L 401.00 248.00 L 378.00 271.00 L 367.00 285.00 L 362.00 287.00 L 362.00 265.00 L 366.00 247.00 L 375.00 224.00 L 390.00 201.00 L 412.00 180.00 L 424.00 172.00 L 445.00 162.00 L 482.00 153.00 Z
M 159.00 137.00 L 191.00 138.00 L 206.00 141.00 L 226.00 148.00 L 252.00 163.00 L 273.00 183.00 L 285.00 201.00 L 294.00 222.00 L 299.00 246.00 L 298.00 264.00 L 293.00 261.00 L 272.00 234.00 L 238.00 202.00 L 234.00 200.00 L 227.00 201.00 L 222.00 207.00 L 222.00 214.00 L 260.00 250.00 L 284.00 281.00 L 283.00 284.00 L 261.00 283.00 L 235.00 276.00 L 216.00 266.00 L 189.00 242.00 L 174.00 220.00 L 165.00 199.00 L 158.00 165.00 Z
M 353.00 30.00 L 345.00 30.00 L 341.00 32.00 L 320.00 51.00 L 311.00 63.00 L 302.00 80.00 L 296.00 101.00 L 295.00 123.00 L 301.00 150.00 L 311.00 170.00 L 322.00 185.00 L 327.00 189.00 L 337.00 188.00 L 364.00 163.00 L 375.00 146.00 L 384.00 117.00 L 384.00 89.00 L 378.00 67.00 L 365.00 43.00 Z
M 474.00 477.00 L 473.00 480.00 L 147.00 479.00 L 147.00 477.00 L 155.00 471.00 L 162.00 469.00 L 181.00 471.00 L 192.00 463.00 L 200.00 460.00 L 213.00 459.00 L 228.00 462.00 L 244.00 448.00 L 256.00 443.00 L 272.00 443.00 L 291.00 452.00 L 297.00 452.00 L 315.00 441.00 L 324.00 439.00 L 336.00 439.00 L 346.00 442.00 L 363.00 453.00 L 370.00 452.00 L 385.00 445.00 L 404.00 446.00 L 414.00 451.00 L 424.00 462.00 L 428.00 464.00 L 435.00 464.00 L 439.00 462.00 L 455.00 463.00 L 467.00 469.00 Z
M 348.00 53.00 L 354.00 62.00 L 363.00 83.00 L 365.00 94.00 L 365.00 113.00 L 362.00 127.00 L 355.00 142.00 L 346.00 154.00 L 338.00 162.00 L 332.00 165.00 L 319.00 143.00 L 315.00 129.00 L 314.00 111.00 L 317.00 95.00 L 324.00 79.00 L 331.00 68.00 L 346.00 53.00 Z
M 599.00 468.00 L 614.00 468.00 L 621.00 474.00 L 621.00 595.00 L 616.00 601.00 L 613.00 602.00 L 594.00 602.00 L 592.00 600.00 L 592.00 476.00 L 593.00 473.00 Z
M 57.00 468.00 L 72.00 468.00 L 78.00 474.00 L 77.00 602.00 L 57.00 602.00 L 50.00 596.00 L 50.00 474.00 Z
M 535.00 333.00 L 538.00 342.00 L 538.00 371.00 L 535.00 392.00 L 526.00 429.00 L 517.00 455.00 L 514.00 456.00 L 510.00 440.00 L 508.00 417.00 L 511.00 382.00 L 519.00 356.00 L 530.00 336.00 Z
M 77.00 356.00 L 90.00 355.00 L 98.00 357.00 L 114.00 366.00 L 125.00 379.00 L 129.00 387.00 L 131.00 397.00 L 116.00 398.00 L 104.00 394.00 L 96.00 389.00 L 82.00 373.00 L 77.00 361.00 Z
M 594.00 389.00 L 595.00 392.00 L 589.00 404.00 L 570.00 432.00 L 556.00 449.00 L 541.00 464.00 L 535.00 467.00 L 534.00 464.00 L 543.00 439.00 L 556.00 419.00 L 575.00 399.00 L 590.00 389.00 Z
M 203.00 340.00 L 204.00 348.00 L 202.00 359.00 L 194.00 374.00 L 182.00 385.00 L 171.00 390.00 L 161.00 391.00 L 160.00 383.00 L 162.00 374.00 L 171.00 357.00 L 184.00 346.00 L 195.00 341.00 Z
M 454.00 390.00 L 456.00 390.00 L 467.00 400.00 L 486.00 428.00 L 491.00 440.00 L 495.00 460.00 L 494.00 464.00 L 486.00 458.00 L 468.00 433.00 L 456.00 406.00 L 453.00 395.00 Z" fill-rule="evenodd"/>
</svg>
