<svg xmlns="http://www.w3.org/2000/svg" viewBox="0 0 586 710" width="24" height="24" role="img" aria-label="perfil">
  <path d="M 43.00 484.00 L 37.00 502.00 L 31.00 532.00 L 30.00 637.00 L 34.00 652.00 L 39.00 660.00 L 51.00 671.00 L 69.00 677.00 L 285.00 677.00 L 324.00 672.00 L 352.00 663.00 L 376.00 674.00 L 401.00 679.00 L 428.00 679.00 L 454.00 674.00 L 470.00 668.00 L 490.00 656.00 L 499.00 649.00 L 521.00 625.00 L 529.00 613.00 L 543.00 583.00 L 550.00 557.00 L 554.00 531.00 L 555.00 486.00 L 553.00 483.00 L 535.00 481.00 L 496.00 482.00 L 484.00 457.00 L 468.00 433.00 L 442.00 406.00 L 432.00 398.00 L 407.00 382.00 L 380.00 370.00 L 355.00 363.00 L 325.00 359.00 L 240.00 358.00 L 207.00 360.00 L 174.00 366.00 L 148.00 375.00 L 128.00 385.00 L 108.00 398.00 L 78.00 426.00 L 62.00 447.00 Z
M 468.00 482.00 L 468.00 488.00 L 443.00 495.00 L 411.00 512.00 L 397.00 523.00 L 379.00 542.00 L 369.00 557.00 L 358.00 582.00 L 352.00 606.00 L 349.00 636.00 L 341.00 640.00 L 315.00 647.00 L 275.00 651.00 L 71.00 651.00 L 62.00 647.00 L 57.00 641.00 L 57.00 532.00 L 63.00 505.00 L 72.00 482.00 L 89.00 454.00 L 112.00 429.00 L 138.00 410.00 L 167.00 396.00 L 192.00 389.00 L 225.00 385.00 L 317.00 385.00 L 358.00 391.00 L 392.00 404.00 L 424.00 425.00 L 449.00 451.00 Z
M 258.00 30.00 L 227.00 36.00 L 203.00 46.00 L 179.00 62.00 L 158.00 83.00 L 142.00 107.00 L 130.00 136.00 L 125.00 160.00 L 124.00 191.00 L 127.00 213.00 L 135.00 239.00 L 151.00 268.00 L 175.00 295.00 L 192.00 308.00 L 219.00 322.00 L 250.00 330.00 L 283.00 331.00 L 315.00 325.00 L 343.00 313.00 L 366.00 297.00 L 384.00 279.00 L 400.00 256.00 L 413.00 226.00 L 419.00 196.00 L 419.00 165.00 L 415.00 141.00 L 407.00 118.00 L 400.00 104.00 L 383.00 80.00 L 367.00 64.00 L 346.00 49.00 L 313.00 35.00 L 286.00 30.00 Z
M 259.00 57.00 L 284.00 57.00 L 304.00 61.00 L 334.00 74.00 L 349.00 85.00 L 365.00 101.00 L 378.00 120.00 L 389.00 147.00 L 393.00 169.00 L 393.00 192.00 L 388.00 217.00 L 379.00 239.00 L 368.00 256.00 L 349.00 276.00 L 327.00 291.00 L 308.00 299.00 L 284.00 304.00 L 259.00 304.00 L 235.00 299.00 L 218.00 292.00 L 199.00 280.00 L 180.00 262.00 L 167.00 244.00 L 156.00 220.00 L 151.00 200.00 L 150.00 171.00 L 155.00 144.00 L 165.00 120.00 L 178.00 101.00 L 195.00 84.00 L 218.00 69.00 L 235.00 62.00 Z
M 530.00 507.00 L 529.00 534.00 L 526.00 552.00 L 518.00 579.00 L 502.00 609.00 L 484.00 629.00 L 464.00 643.00 L 433.00 653.00 L 406.00 654.00 L 391.00 652.00 L 383.00 649.00 L 385.00 645.00 L 400.00 635.00 L 443.00 597.00 L 461.00 585.00 L 477.00 577.00 L 481.00 571.00 L 481.00 564.00 L 475.00 556.00 L 464.00 555.00 L 430.00 575.00 L 388.00 612.00 L 377.00 619.00 L 377.00 605.00 L 385.00 580.00 L 396.00 561.00 L 411.00 544.00 L 440.00 524.00 L 471.00 512.00 L 505.00 506.00 Z" fill-rule="evenodd"/>
</svg>
