<svg xmlns="http://www.w3.org/2000/svg" viewBox="0 0 64 64" width="24" height="24" role="img" aria-label="productos">
  <g fill="none" stroke="currentColor" stroke-width="3" stroke-linecap="round" stroke-linejoin="round">
    <path d="M23 24v-4c0-5 4-8 9-8s9 3 9 8v4" />
    <path d="M17 24h30l-2 27c-.3 2.6-2.5 4.5-5.1 4.5H24.2c-2.6 0-4.8-1.9-5.1-4.5L17 24z" />
    <path d="M32 45v-7" />
    <path d="M32 38c-4.8 0-8.4-3.2-8.8-8 4.9 0 8.7 3.1 8.8 8z" />
    <path d="M32 38c.4-5.3 4.4-9.2 9.8-9.6.1 5.6-3.7 9.6-9.8 9.6z" />
  </g>
</svg>
