<svg xmlns="http://www.w3.org/2000/svg" viewBox="0 0 588 658" width="24" height="24" role="img" aria-label="restaurante">
  <path d="M 511.00 88.00 L 497.00 80.00 L 490.00 78.00 L 466.00 77.00 L 450.00 82.00 L 435.00 92.00 L 422.00 106.00 L 409.00 128.00 L 398.00 159.00 L 393.00 189.00 L 394.00 225.00 L 404.00 256.00 L 411.00 267.00 L 426.00 282.00 L 448.00 295.00 L 448.00 516.00 L 440.00 539.00 L 435.00 546.00 L 419.00 561.00 L 420.00 571.00 L 425.00 575.00 L 431.00 576.00 L 440.00 571.00 L 458.00 551.00 L 467.00 530.00 L 470.00 514.00 L 470.00 289.00 L 468.00 283.00 L 462.00 277.00 L 445.00 269.00 L 436.00 262.00 L 428.00 253.00 L 421.00 241.00 L 415.00 217.00 L 415.00 191.00 L 419.00 166.00 L 426.00 144.00 L 440.00 119.00 L 456.00 104.00 L 464.00 100.00 L 479.00 98.00 L 487.00 100.00 L 498.00 106.00 L 512.00 121.00 L 522.00 139.00 L 532.00 171.00 L 535.00 192.00 L 535.00 218.00 L 529.00 242.00 L 522.00 254.00 L 510.00 266.00 L 489.00 278.00 L 484.00 287.00 L 484.00 522.00 L 480.00 541.00 L 472.00 559.00 L 462.00 573.00 L 449.00 586.00 L 439.00 593.00 L 415.00 603.00 L 403.00 605.00 L 384.00 605.00 L 365.00 601.00 L 351.00 595.00 L 343.00 590.00 L 341.00 585.00 L 361.00 572.00 L 378.00 556.00 L 389.00 542.00 L 401.00 522.00 L 409.00 503.00 L 415.00 482.00 L 418.00 462.00 L 416.00 452.00 L 409.00 447.00 L 260.00 446.00 L 261.00 422.00 L 264.00 419.00 L 291.00 412.00 L 319.00 396.00 L 339.00 377.00 L 345.00 369.00 L 359.00 342.00 L 368.00 304.00 L 369.00 255.00 L 366.00 225.00 L 362.00 219.00 L 358.00 217.00 L 351.00 217.00 L 310.00 234.00 L 271.00 259.00 L 246.00 284.00 L 235.00 300.00 L 228.00 314.00 L 221.00 340.00 L 221.00 366.00 L 229.00 394.00 L 241.00 413.00 L 238.00 432.00 L 238.00 446.00 L 162.00 447.00 L 155.00 453.00 L 154.00 463.00 L 159.00 490.00 L 167.00 513.00 L 177.00 533.00 L 188.00 549.00 L 205.00 567.00 L 232.00 586.00 L 232.00 588.00 L 212.00 599.00 L 193.00 604.00 L 178.00 605.00 L 161.00 603.00 L 148.00 599.00 L 134.00 592.00 L 123.00 584.00 L 106.00 565.00 L 94.00 540.00 L 90.00 516.00 L 90.00 286.00 L 84.00 278.00 L 65.00 269.00 L 57.00 260.00 L 53.00 250.00 L 52.00 85.00 L 50.00 81.00 L 45.00 78.00 L 38.00 78.00 L 33.00 81.00 L 30.00 87.00 L 31.00 251.00 L 39.00 272.00 L 47.00 282.00 L 57.00 290.00 L 69.00 296.00 L 69.00 527.00 L 73.00 546.00 L 82.00 568.00 L 93.00 585.00 L 112.00 604.00 L 124.00 612.00 L 150.00 623.00 L 166.00 626.00 L 193.00 626.00 L 221.00 619.00 L 237.00 611.00 L 257.00 595.00 L 276.00 598.00 L 294.00 598.00 L 315.00 595.00 L 337.00 612.00 L 359.00 622.00 L 384.00 627.00 L 403.00 627.00 L 422.00 624.00 L 445.00 615.00 L 462.00 604.00 L 481.00 585.00 L 497.00 558.00 L 502.00 544.00 L 505.00 528.00 L 505.00 295.00 L 524.00 283.00 L 539.00 268.00 L 551.00 246.00 L 557.00 217.00 L 556.00 181.00 L 552.00 159.00 L 545.00 137.00 L 530.00 108.00 Z
M 178.00 475.00 L 179.00 469.00 L 196.00 468.00 L 395.00 470.00 L 390.00 492.00 L 382.00 509.00 L 363.00 506.00 L 346.00 507.00 L 330.00 512.00 L 310.00 523.00 L 297.00 527.00 L 277.00 527.00 L 265.00 522.00 L 259.00 522.00 L 252.00 527.00 L 251.00 536.00 L 254.00 541.00 L 279.00 549.00 L 296.00 549.00 L 310.00 546.00 L 340.00 531.00 L 350.00 528.00 L 365.00 528.00 L 369.00 530.00 L 366.00 536.00 L 348.00 554.00 L 338.00 561.00 L 323.00 569.00 L 296.00 576.00 L 274.00 576.00 L 260.00 573.00 L 237.00 563.00 L 224.00 554.00 L 206.00 536.00 L 195.00 520.00 L 183.00 494.00 Z
M 157.00 78.00 L 147.00 79.00 L 142.00 86.00 L 142.00 247.00 L 136.00 262.00 L 125.00 272.00 L 110.00 279.00 L 105.00 288.00 L 105.00 516.00 L 109.00 535.00 L 117.00 552.00 L 122.00 559.00 L 140.00 575.00 L 151.00 574.00 L 155.00 569.00 L 155.00 561.00 L 135.00 540.00 L 127.00 518.00 L 127.00 295.00 L 139.00 289.00 L 151.00 278.00 L 159.00 265.00 L 164.00 247.00 L 164.00 86.00 L 163.00 83.00 Z
M 345.00 243.00 L 348.00 274.00 L 346.00 305.00 L 338.00 335.00 L 326.00 357.00 L 313.00 372.00 L 297.00 384.00 L 275.00 394.00 L 270.00 393.00 L 272.00 384.00 L 287.00 353.00 L 298.00 337.00 L 313.00 320.00 L 314.00 314.00 L 312.00 309.00 L 306.00 304.00 L 300.00 304.00 L 294.00 308.00 L 277.00 329.00 L 266.00 346.00 L 251.00 380.00 L 248.00 381.00 L 242.00 361.00 L 242.00 346.00 L 247.00 326.00 L 257.00 306.00 L 269.00 291.00 L 292.00 271.00 L 314.00 257.00 Z
M 315.00 30.00 L 308.00 30.00 L 304.00 32.00 L 300.00 40.00 L 301.00 46.00 L 308.00 55.00 L 316.00 72.00 L 318.00 80.00 L 318.00 98.00 L 313.00 114.00 L 294.00 142.00 L 288.00 156.00 L 286.00 164.00 L 286.00 182.00 L 287.00 185.00 L 293.00 190.00 L 300.00 190.00 L 306.00 186.00 L 309.00 161.00 L 334.00 120.00 L 340.00 97.00 L 340.00 81.00 L 337.00 66.00 L 325.00 41.00 Z
M 274.00 95.00 L 264.00 96.00 L 254.00 108.00 L 238.00 135.00 L 232.00 157.00 L 232.00 177.00 L 237.00 197.00 L 254.00 227.00 L 261.00 233.00 L 271.00 231.00 L 275.00 225.00 L 275.00 219.00 L 258.00 191.00 L 254.00 177.00 L 253.00 165.00 L 257.00 146.00 L 264.00 132.00 L 281.00 108.00 L 280.00 100.00 Z
M 94.00 78.00 L 89.00 81.00 L 86.00 88.00 L 86.00 200.00 L 88.00 214.00 L 94.00 218.00 L 101.00 218.00 L 108.00 211.00 L 108.00 85.00 L 103.00 79.00 Z" fill-rule="evenodd"/>
</svg>
