<svg xmlns="http://www.w3.org/2000/svg" viewBox="0 0 773 720" width="24" height="24" role="img" aria-label="vivero">
  <path d="M 67.00 234.00 L 56.00 254.00 L 51.00 275.00 L 51.00 662.00 L 42.00 663.00 L 33.00 668.00 L 30.00 678.00 L 34.00 686.00 L 39.00 689.00 L 733.00 689.00 L 740.00 684.00 L 742.00 675.00 L 739.00 668.00 L 734.00 664.00 L 720.00 662.00 L 720.00 273.00 L 717.00 258.00 L 712.00 245.00 L 704.00 233.00 L 690.00 220.00 L 413.00 37.00 L 397.00 31.00 L 383.00 30.00 L 371.00 32.00 L 355.00 39.00 L 84.00 218.00 Z
M 298.00 222.00 L 333.00 208.00 L 366.00 202.00 L 406.00 202.00 L 433.00 207.00 L 459.00 216.00 L 492.00 235.00 L 514.00 255.00 L 534.00 282.00 L 549.00 317.00 L 555.00 349.00 L 554.00 663.00 L 403.00 664.00 L 396.00 662.00 L 396.00 591.00 L 400.00 538.00 L 455.00 514.00 L 479.00 498.00 L 501.00 475.00 L 511.00 458.00 L 517.00 441.00 L 522.00 413.00 L 522.00 358.00 L 517.00 318.00 L 509.00 309.00 L 494.00 310.00 L 475.00 315.00 L 435.00 332.00 L 402.00 356.00 L 390.00 369.00 L 380.00 384.00 L 372.00 403.00 L 368.00 422.00 L 369.00 463.00 L 379.00 515.00 L 376.00 560.00 L 374.00 564.00 L 371.00 563.00 L 358.00 544.00 L 362.00 519.00 L 361.00 485.00 L 356.00 468.00 L 350.00 456.00 L 343.00 447.00 L 324.00 431.00 L 297.00 419.00 L 273.00 414.00 L 247.00 414.00 L 241.00 419.00 L 241.00 465.00 L 246.00 490.00 L 254.00 510.00 L 266.00 528.00 L 287.00 546.00 L 305.00 555.00 L 343.00 564.00 L 348.00 568.00 L 361.00 588.00 L 370.00 610.00 L 371.00 662.00 L 211.00 662.00 L 211.00 358.00 L 213.00 340.00 L 223.00 305.00 L 242.00 271.00 L 269.00 242.00 Z
M 77.00 278.00 L 84.00 256.00 L 99.00 240.00 L 373.00 59.00 L 380.00 57.00 L 391.00 57.00 L 401.00 61.00 L 675.00 242.00 L 687.00 255.00 L 693.00 271.00 L 693.00 344.00 L 581.00 345.00 L 575.00 313.00 L 563.00 281.00 L 544.00 250.00 L 524.00 228.00 L 499.00 208.00 L 470.00 192.00 L 442.00 182.00 L 403.00 175.00 L 369.00 175.00 L 328.00 182.00 L 300.00 192.00 L 282.00 201.00 L 261.00 215.00 L 231.00 243.00 L 211.00 271.00 L 197.00 301.00 L 192.00 316.00 L 186.00 345.00 L 78.00 345.00 Z
M 582.00 371.00 L 693.00 372.00 L 692.00 663.00 L 581.00 662.00 Z
M 78.00 371.00 L 185.00 372.00 L 184.00 663.00 L 77.00 662.00 Z
M 496.00 334.00 L 500.00 367.00 L 500.00 405.00 L 497.00 429.00 L 488.00 453.00 L 478.00 467.00 L 459.00 484.00 L 435.00 498.00 L 407.00 509.00 L 406.00 505.00 L 412.00 486.00 L 426.00 456.00 L 441.00 434.00 L 458.00 416.00 L 459.00 407.00 L 454.00 402.00 L 447.00 402.00 L 442.00 405.00 L 423.00 425.00 L 409.00 445.00 L 397.00 469.00 L 393.00 470.00 L 390.00 455.00 L 390.00 426.00 L 394.00 409.00 L 401.00 394.00 L 413.00 378.00 L 436.00 359.00 L 466.00 343.00 Z
M 264.00 437.00 L 280.00 439.00 L 305.00 447.00 L 318.00 455.00 L 331.00 469.00 L 339.00 489.00 L 339.00 513.00 L 336.00 512.00 L 322.00 493.00 L 306.00 477.00 L 299.00 476.00 L 292.00 482.00 L 293.00 491.00 L 318.00 520.00 L 326.00 533.00 L 325.00 536.00 L 312.00 533.00 L 298.00 526.00 L 280.00 509.00 L 271.00 493.00 L 265.00 471.00 L 263.00 458.00 Z" fill-rule="evenodd"/>
</svg>
