<svg xmlns="http://www.w3.org/2000/svg" viewBox="0 0 1254 1254" width="24" height="24" role="img" aria-label="botón atrás">
  <path d="M 300.00 607.00 L 300.00 611.00 L 299.00 612.00 L 299.00 631.00 L 300.00 632.00 L 300.00 635.00 L 301.00 636.00 L 302.00 641.00 L 303.00 642.00 L 306.00 649.00 L 386.00 729.00 L 386.00 730.00 L 388.00 732.00 L 389.00 732.00 L 394.00 737.00 L 394.00 738.00 L 399.00 743.00 L 400.00 743.00 L 401.00 744.00 L 401.00 745.00 L 508.00 852.00 L 509.00 852.00 L 514.00 857.00 L 515.00 857.00 L 516.00 858.00 L 518.00 858.00 L 519.00 859.00 L 525.00 859.00 L 526.00 858.00 L 528.00 858.00 L 529.00 857.00 L 532.00 856.00 L 537.00 850.00 L 537.00 848.00 L 538.00 847.00 L 538.00 838.00 L 537.00 837.00 L 535.00 832.00 L 522.00 819.00 L 521.00 819.00 L 514.00 812.00 L 514.00 811.00 L 507.00 804.00 L 506.00 804.00 L 502.00 800.00 L 502.00 799.00 L 415.00 712.00 L 415.00 711.00 L 413.00 709.00 L 412.00 709.00 L 402.00 699.00 L 402.00 698.00 L 339.00 635.00 L 340.00 634.00 L 666.00 634.00 L 667.00 635.00 L 672.00 635.00 L 673.00 636.00 L 676.00 636.00 L 677.00 637.00 L 679.00 637.00 L 680.00 638.00 L 685.00 639.00 L 688.00 641.00 L 690.00 641.00 L 691.00 642.00 L 696.00 644.00 L 698.00 646.00 L 701.00 647.00 L 703.00 649.00 L 704.00 649.00 L 707.00 652.00 L 708.00 652.00 L 711.00 655.00 L 712.00 655.00 L 724.00 667.00 L 724.00 668.00 L 730.00 675.00 L 731.00 678.00 L 733.00 680.00 L 733.00 681.00 L 739.00 692.00 L 739.00 694.00 L 740.00 695.00 L 740.00 697.00 L 741.00 698.00 L 741.00 700.00 L 742.00 701.00 L 742.00 703.00 L 743.00 704.00 L 743.00 707.00 L 744.00 708.00 L 744.00 712.00 L 745.00 713.00 L 745.00 719.00 L 746.00 720.00 L 746.00 730.00 L 747.00 731.00 L 747.00 737.00 L 748.00 738.00 L 748.00 743.00 L 749.00 744.00 L 749.00 747.00 L 750.00 748.00 L 751.00 753.00 L 752.00 754.00 L 754.00 759.00 L 756.00 761.00 L 756.00 762.00 L 763.00 770.00 L 764.00 770.00 L 770.00 775.00 L 771.00 775.00 L 778.00 779.00 L 780.00 779.00 L 783.00 781.00 L 785.00 781.00 L 786.00 782.00 L 789.00 782.00 L 790.00 783.00 L 792.00 783.00 L 793.00 784.00 L 797.00 784.00 L 798.00 785.00 L 803.00 785.00 L 804.00 786.00 L 837.00 786.00 L 838.00 785.00 L 842.00 785.00 L 843.00 784.00 L 847.00 784.00 L 848.00 783.00 L 851.00 783.00 L 852.00 782.00 L 854.00 782.00 L 855.00 781.00 L 857.00 781.00 L 858.00 780.00 L 863.00 779.00 L 864.00 778.00 L 865.00 778.00 L 870.00 775.00 L 872.00 775.00 L 873.00 774.00 L 878.00 772.00 L 880.00 770.00 L 883.00 769.00 L 889.00 764.00 L 890.00 764.00 L 894.00 760.00 L 895.00 760.00 L 910.00 745.00 L 910.00 744.00 L 917.00 736.00 L 917.00 735.00 L 919.00 733.00 L 920.00 730.00 L 922.00 728.00 L 925.00 721.00 L 927.00 719.00 L 927.00 718.00 L 931.00 711.00 L 931.00 709.00 L 933.00 706.00 L 934.00 701.00 L 936.00 698.00 L 936.00 696.00 L 937.00 695.00 L 937.00 693.00 L 938.00 692.00 L 938.00 689.00 L 939.00 688.00 L 939.00 686.00 L 940.00 685.00 L 940.00 682.00 L 941.00 681.00 L 941.00 678.00 L 942.00 677.00 L 942.00 673.00 L 943.00 672.00 L 943.00 668.00 L 944.00 667.00 L 944.00 662.00 L 945.00 661.00 L 945.00 654.00 L 946.00 653.00 L 946.00 646.00 L 947.00 645.00 L 947.00 633.00 L 948.00 632.00 L 948.00 604.00 L 947.00 603.00 L 946.00 600.00 L 942.00 596.00 L 941.00 596.00 L 940.00 595.00 L 938.00 595.00 L 937.00 594.00 L 929.00 594.00 L 928.00 593.00 L 888.00 593.00 L 887.00 594.00 L 879.00 594.00 L 878.00 595.00 L 872.00 595.00 L 871.00 596.00 L 866.00 596.00 L 865.00 597.00 L 861.00 597.00 L 860.00 598.00 L 856.00 598.00 L 855.00 599.00 L 852.00 599.00 L 851.00 600.00 L 848.00 600.00 L 847.00 601.00 L 845.00 601.00 L 844.00 602.00 L 841.00 602.00 L 840.00 603.00 L 835.00 604.00 L 832.00 606.00 L 827.00 607.00 L 826.00 608.00 L 825.00 608.00 L 824.00 609.00 L 823.00 609.00 L 822.00 610.00 L 821.00 610.00 L 820.00 611.00 L 819.00 611.00 L 818.00 612.00 L 817.00 612.00 L 816.00 613.00 L 809.00 616.00 L 807.00 618.00 L 804.00 619.00 L 802.00 621.00 L 801.00 621.00 L 799.00 623.00 L 798.00 623.00 L 795.00 626.00 L 794.00 626.00 L 791.00 629.00 L 790.00 629.00 L 772.00 647.00 L 772.00 648.00 L 768.00 652.00 L 768.00 653.00 L 766.00 655.00 L 766.00 656.00 L 764.00 658.00 L 764.00 659.00 L 762.00 661.00 L 762.00 662.00 L 760.00 665.00 L 759.00 664.00 L 758.00 661.00 L 756.00 659.00 L 755.00 656.00 L 753.00 654.00 L 753.00 653.00 L 749.00 649.00 L 749.00 648.00 L 741.00 640.00 L 741.00 639.00 L 738.00 636.00 L 737.00 636.00 L 730.00 629.00 L 729.00 629.00 L 726.00 626.00 L 725.00 626.00 L 717.00 620.00 L 714.00 619.00 L 712.00 617.00 L 711.00 617.00 L 702.00 612.00 L 700.00 612.00 L 697.00 610.00 L 695.00 610.00 L 694.00 609.00 L 692.00 609.00 L 691.00 608.00 L 688.00 608.00 L 687.00 607.00 L 685.00 607.00 L 684.00 606.00 L 681.00 606.00 L 680.00 605.00 L 677.00 605.00 L 676.00 604.00 L 671.00 604.00 L 670.00 603.00 L 646.00 603.00 L 645.00 602.00 L 630.00 602.00 L 629.00 603.00 L 628.00 602.00 L 594.00 602.00 L 593.00 603.00 L 586.00 603.00 L 585.00 602.00 L 579.00 602.00 L 578.00 603.00 L 571.00 603.00 L 570.00 602.00 L 527.00 602.00 L 526.00 603.00 L 515.00 603.00 L 514.00 602.00 L 454.00 602.00 L 453.00 603.00 L 441.00 603.00 L 440.00 602.00 L 416.00 602.00 L 415.00 603.00 L 403.00 603.00 L 402.00 602.00 L 376.00 602.00 L 375.00 603.00 L 344.00 603.00 L 343.00 602.00 L 343.00 601.00 L 370.00 574.00 L 370.00 573.00 L 372.00 571.00 L 373.00 571.00 L 382.00 562.00 L 382.00 561.00 L 503.00 440.00 L 503.00 439.00 L 529.00 413.00 L 529.00 412.00 L 531.00 409.00 L 531.00 406.00 L 532.00 405.00 L 532.00 401.00 L 531.00 400.00 L 531.00 398.00 L 530.00 397.00 L 529.00 394.00 L 526.00 391.00 L 525.00 391.00 L 523.00 389.00 L 521.00 389.00 L 520.00 388.00 L 511.00 388.00 L 510.00 389.00 L 508.00 389.00 L 506.00 391.00 L 505.00 391.00 L 458.00 438.00 L 458.00 439.00 L 456.00 441.00 L 455.00 441.00 L 454.00 442.00 L 454.00 443.00 L 453.00 444.00 L 452.00 444.00 L 450.00 446.00 L 450.00 447.00 L 328.00 569.00 L 328.00 570.00 L 308.00 590.00 L 308.00 591.00 L 306.00 593.00 L 306.00 594.00 L 303.00 599.00 L 303.00 601.00 L 302.00 602.00 L 302.00 603.00 L 301.00 604.00 L 301.00 606.00 Z M 919.00 621.00 L 920.00 622.00 L 920.00 633.00 L 919.00 634.00 L 919.00 647.00 L 918.00 648.00 L 918.00 654.00 L 917.00 655.00 L 917.00 659.00 L 916.00 660.00 L 916.00 665.00 L 915.00 666.00 L 915.00 670.00 L 914.00 671.00 L 914.00 674.00 L 913.00 675.00 L 913.00 678.00 L 912.00 679.00 L 912.00 681.00 L 911.00 682.00 L 911.00 684.00 L 910.00 685.00 L 910.00 688.00 L 909.00 689.00 L 909.00 691.00 L 908.00 692.00 L 908.00 693.00 L 907.00 694.00 L 907.00 696.00 L 904.00 701.00 L 904.00 703.00 L 903.00 704.00 L 900.00 711.00 L 898.00 713.00 L 897.00 716.00 L 895.00 718.00 L 895.00 719.00 L 893.00 721.00 L 893.00 722.00 L 889.00 726.00 L 889.00 727.00 L 878.00 738.00 L 877.00 738.00 L 869.00 745.00 L 866.00 746.00 L 864.00 748.00 L 863.00 748.00 L 858.00 751.00 L 856.00 751.00 L 853.00 753.00 L 851.00 753.00 L 850.00 754.00 L 848.00 754.00 L 847.00 755.00 L 844.00 755.00 L 843.00 756.00 L 840.00 756.00 L 839.00 757.00 L 833.00 757.00 L 832.00 758.00 L 810.00 758.00 L 809.00 757.00 L 804.00 757.00 L 803.00 756.00 L 799.00 756.00 L 798.00 755.00 L 793.00 754.00 L 792.00 753.00 L 794.00 751.00 L 794.00 750.00 L 803.00 740.00 L 803.00 739.00 L 809.00 733.00 L 809.00 732.00 L 820.00 721.00 L 820.00 720.00 L 826.00 714.00 L 827.00 714.00 L 835.00 706.00 L 836.00 706.00 L 841.00 701.00 L 842.00 701.00 L 845.00 698.00 L 846.00 698.00 L 849.00 695.00 L 850.00 695.00 L 853.00 692.00 L 854.00 692.00 L 858.00 688.00 L 858.00 687.00 L 859.00 686.00 L 859.00 684.00 L 860.00 683.00 L 860.00 678.00 L 859.00 677.00 L 859.00 675.00 L 854.00 669.00 L 853.00 669.00 L 852.00 668.00 L 850.00 668.00 L 849.00 667.00 L 845.00 667.00 L 844.00 668.00 L 839.00 669.00 L 836.00 672.00 L 835.00 672.00 L 832.00 675.00 L 831.00 675.00 L 828.00 678.00 L 827.00 678.00 L 823.00 682.00 L 822.00 682.00 L 815.00 689.00 L 814.00 689.00 L 793.00 710.00 L 793.00 711.00 L 780.00 725.00 L 780.00 726.00 L 777.00 729.00 L 777.00 730.00 L 776.00 731.00 L 775.00 731.00 L 774.00 730.00 L 774.00 706.00 L 775.00 705.00 L 775.00 701.00 L 776.00 700.00 L 776.00 697.00 L 777.00 696.00 L 777.00 693.00 L 778.00 692.00 L 778.00 690.00 L 780.00 687.00 L 780.00 685.00 L 781.00 684.00 L 781.00 683.00 L 782.00 682.00 L 785.00 675.00 L 787.00 673.00 L 788.00 670.00 L 791.00 667.00 L 791.00 666.00 L 796.00 661.00 L 796.00 660.00 L 804.00 652.00 L 805.00 652.00 L 809.00 648.00 L 810.00 648.00 L 813.00 645.00 L 816.00 644.00 L 821.00 640.00 L 824.00 639.00 L 826.00 637.00 L 827.00 637.00 L 832.00 634.00 L 837.00 633.00 L 840.00 631.00 L 842.00 631.00 L 843.00 630.00 L 845.00 630.00 L 846.00 629.00 L 848.00 629.00 L 849.00 628.00 L 852.00 628.00 L 853.00 627.00 L 856.00 627.00 L 857.00 626.00 L 860.00 626.00 L 861.00 625.00 L 865.00 625.00 L 866.00 624.00 L 870.00 624.00 L 871.00 623.00 L 877.00 623.00 L 878.00 622.00 L 885.00 622.00 L 886.00 621.00 Z" fill="#42382C" fill-rule="evenodd"/>
</svg>
